<?xml version="1.0" encoding="UTF-8"?>
<svg width="24px" height="21px" viewBox="0 0 24 21" version="1.1" xmlns="http://www.w3.org/2000/svg" xmlns:xlink="http://www.w3.org/1999/xlink">
    <!-- Generator: Sketch 61.2 (89653) - https://sketch.com -->
    <title>home-icon</title>
    <desc>Created with Sketch.</desc>
    <g id="Page-1" stroke="none" stroke-width="1" fill="none" fill-rule="evenodd" opacity="0.429175967">
        <g id="Home-Copy" transform="translate(-28.000000, -372.000000)" fill="#FFFFFF" fill-rule="nonzero">
            <g id="Sidebar" transform="translate(0.000000, 183.000000)">
                <g id="Menu" transform="translate(0.000000, 164.000000)">
                    <g id="home-icon" transform="translate(28.000000, 25.000000)">
                        <path d="M23.6950649,11.4895584 L18.3320519,6.12696104 L18.3320519,0.858493506 C18.3320519,0.428155844 17.9832727,0.0792727273 17.5528312,0.0792727273 C17.1223896,0.0792727273 16.7736104,0.428155844 16.7736104,0.858493506 L16.7736104,4.56851948 L12.5122078,0.307532468 C12.208,0.00322077922 11.7145974,0.00332467532 11.4102857,0.307532468 L0.22825974,11.4895584 C-0.0760519481,11.7938701 -0.0760519481,12.2872727 0.22825974,12.5914805 C0.532675325,12.8957922 1.02597403,12.8957922 1.33038961,12.5914805 L3.27532468,10.6465455 L3.27532468,19.9478442 C3.27532468,20.3781818 3.6241039,20.7270649 4.05454545,20.7270649 L19.8690909,20.7270649 C20.2995325,20.7270649 20.6483117,20.3781818 20.6483117,19.9478442 L20.6483117,10.6466494 L22.5933506,12.5914805 C22.7454545,12.7435844 22.9449351,12.8196364 23.1443117,12.8196364 C23.3436883,12.8196364 23.5431688,12.7435844 23.6953766,12.5913766 C23.9993766,12.2871688 23.9993766,11.7938701 23.6950649,11.4895584 Z M19.0897662,19.1687273 L4.83366234,19.1687273 L4.83366234,9.08820779 L11.9613506,1.96051948 L19.0897662,9.08841558 L19.0897662,19.1687273 Z" id="Shape"></path>
                    </g>
                </g>
            </g>
        </g>
    </g>
</svg>