<?xml version="1.0" encoding="UTF-8"?>
<svg width="60px" height="71px" viewBox="0 0 60 71" version="1.1" xmlns="http://www.w3.org/2000/svg" xmlns:xlink="http://www.w3.org/1999/xlink">
    <!-- Generator: Sketch 61.2 (89653) - https://sketch.com -->
    <title>7196460501554126463</title>
    <desc>Created with Sketch.</desc>
    <g id="Page-1" stroke="none" stroke-width="1" fill="none" fill-rule="evenodd" stroke-linejoin="bevel">
        <g id="Home-Copy-2" transform="translate(-1198.000000, -394.000000)" stroke="#647984" stroke-width="2">
            <g id="7196460501554126463" transform="translate(1198.000000, 395.000000)">
                <path d="M58.8888889,61.1111111 C58.8888889,65.4066667 45.9544444,68.8888889 30,68.8888889 C14.0455556,68.8888889 1.11111111,65.4066667 1.11111111,61.1111111" id="Path"></path>
                <path d="M58.8888889,43.3333333 C58.8888889,47.6288889 45.9544444,51.1111111 30,51.1111111 C14.0455556,51.1111111 1.11111111,47.6288889 1.11111111,43.3333333" id="Path"></path>
                <path d="M58.8888889,25.5555556 C58.8888889,29.8511111 45.9544444,33.3333333 30,33.3333333 C14.0455556,33.3333333 1.11111111,29.8511111 1.11111111,25.5555556" id="Path"></path>
                <ellipse id="Oval" cx="30" cy="7.77777778" rx="28.8888889" ry="7.77777778"></ellipse>
                <line x1="1.11111111" y1="7.77777778" x2="1.11111111" y2="61.1111111" id="Path"></line>
                <line x1="58.8888889" y1="7.77777778" x2="58.8888889" y2="61.1111111" id="Path"></line>
            </g>
        </g>
    </g>
</svg>